<svg width="196" height="196" viewBox="0 0 196 196" fill="none" xmlns="http://www.w3.org/2000/svg">
<path d="M184.55 89.0462C186.797 92.087 187.66 95.1279 187.833 97.8309V98.1688C187.66 100.872 186.624 103.913 184.55 106.954C178.676 115.231 138.247 179.09 138.247 179.09C138.247 179.09 134.791 185.509 126.844 178.245C125.291 176.807 124.937 176.502 124.61 176.17C124.247 175.799 123.919 175.394 122.006 173.346C118.205 169.291 115.268 161.013 125.116 147.498C135.828 132.97 146.886 116.414 153.797 105.264C155.006 103.406 155.524 100.872 155.524 98.5066V97.493C155.524 95.1279 155.006 92.5938 153.797 90.7355C146.886 79.7546 135.828 63.0298 125.116 48.5012C115.095 34.9862 118.205 26.7083 122.006 22.6538C123.919 20.6057 124.247 20.2004 124.61 19.8298C124.937 19.4973 125.291 19.1926 126.844 17.7546C134.791 10.4903 138.247 16.9099 138.247 16.9099C138.247 16.9099 178.676 80.7682 184.55 89.0462Z" fill="#53B4FA"/>
<path d="M35.8104 93.101C35.8104 94.7904 36.3287 96.4798 37.1926 97.8313C42.0303 105.602 49.9779 117.428 57.4072 127.733C64.491 137.194 61.2083 140.572 58.2711 143.106C56.1979 145.007 54.6106 146.337 52.8532 147.81C52.2673 148.301 51.6625 148.808 51.0146 149.357C45.1402 154.256 42.0303 148.512 42.0303 148.512C42.0303 148.512 14.5591 105.096 10.4126 99.1828C8.85758 96.9866 8.33928 94.7904 8.1665 92.9321C8.33928 90.9048 8.85758 88.8776 10.4126 86.6814C14.5591 80.7686 41.1664 38.8722 41.1664 38.8722C41.1664 38.8722 44.6219 32.2836 51.0146 36.5071C53.4334 38.1964 55.6795 40.0547 58.2711 42.7577C58.3996 42.9001 58.5301 43.0424 58.6615 43.1856C61.1798 45.931 63.9757 48.9789 57.4072 58.131C49.9779 68.2673 42.0303 80.0929 37.1926 87.864C36.3287 89.2155 35.8104 91.4117 35.8104 93.101Z" fill="#53B4FA"/>
</svg>
